<svg width="26" height="26" viewBox="0 0 26 26" fill="none" xmlns="http://www.w3.org/2000/svg">
<circle cx="13" cy="13" r="13" fill="black" fill-opacity="0.25"/>
<path d="M8.09668 8.09473C8.29195 7.8996 8.60849 7.89951 8.80371 8.09473L13.3311 12.6221L17.71 8.24414C17.9052 8.04892 18.2217 8.04901 18.417 8.24414C18.6123 8.4394 18.6123 8.75591 18.417 8.95117L14.0381 13.3291L18.2695 17.5605C18.4647 17.7557 18.4646 18.0723 18.2695 18.2676C18.0743 18.4628 17.7578 18.4628 17.5625 18.2676L13.3311 14.0361L8.95117 18.417C8.75591 18.6123 8.4394 18.6123 8.24414 18.417C8.04908 18.2217 8.04895 17.9052 8.24414 17.71L12.624 13.3291L8.09668 8.80176C7.90142 8.60649 7.90142 8.28999 8.09668 8.09473Z" fill="white"/>
</svg>
